<?xml version="1.0" standalone="no"?>
<!DOCTYPE svg PUBLIC "-//W3C//DTD SVG 20010904//EN"
 "http://www.w3.org/TR/2001/REC-SVG-20010904/DTD/svg10.dtd">
<svg version="1.0" xmlns="http://www.w3.org/2000/svg"
 width="435.000000pt" height="408.000000pt" viewBox="0 0 435.000000 408.000000"
 preserveAspectRatio="xMidYMid meet">

<g transform="translate(0.000000,408.000000) scale(0.100000,-0.100000)"
fill="#000000" stroke="none">
<path d="M930 3540 c-45 -45 -50 -70 -75 -371 -14 -170 -16 -180 -61 -295
l-47 -119 6 -140 c3 -87 16 -208 35 -320 37 -214 76 -486 93 -643 10 -88 16
-115 30 -122 17 -10 294 -9 302 0 2 3 0 45 -5 95 -6 49 -6 91 -1 92 4 2 7 66
5 144 -3 126 0 151 22 233 14 50 33 127 41 171 10 47 34 117 59 169 l43 89
-18 31 c-32 56 -34 100 -6 148 31 52 179 198 201 198 11 0 3 18 -28 63 -56 78
-85 152 -138 347 -51 187 -64 206 -159 227 -35 8 -112 17 -170 20 -101 5 -107
5 -129 -17z m320 -265 c10 -77 10 -81 -11 -97 -27 -23 -102 -24 -123 -3 -12
12 -14 28 -10 63 13 99 19 117 41 120 17 3 22 -4 29 -40 l8 -43 3 35 c4 35 31
67 44 53 4 -5 12 -44 19 -88z"/>
<path d="M1206 3211 c-4 -5 3 -7 14 -4 23 6 26 13 6 13 -8 0 -17 -4 -20 -9z"/>
<path d="M1929 3425 c-97 -19 -192 -91 -225 -172 -19 -45 -20 -130 -1 -174 21
-52 34 -55 41 -10 l6 38 43 -8 c24 -4 57 -11 73 -14 22 -5 25 -4 14 4 -8 6
-23 11 -32 11 -10 0 -18 8 -18 18 0 16 56 122 64 122 2 0 -2 -17 -10 -37 -7
-21 -13 -49 -14 -63 0 -21 5 -25 30 -26 27 -1 30 2 31 30 l2 31 6 -35 c6 -34
6 -34 16 22 6 31 7 54 3 52 -4 -3 -8 0 -8 5 0 6 13 11 28 11 25 0 30 -6 41
-40 6 -22 22 -50 34 -63 12 -13 16 -16 10 -7 -20 26 -15 32 12 14 14 -9 25
-12 25 -6 0 6 -9 16 -20 22 -23 12 -27 40 -6 40 7 0 21 -10 30 -22 9 -13 14
-17 11 -11 -6 13 8 74 28 125 9 22 15 25 30 17 17 -10 17 -8 -1 28 -42 81
-137 119 -243 98z m-117 -302 c8 -10 3 -13 -21 -13 -36 0 -37 6 -13 56 l17 37
3 -34 c2 -19 8 -40 14 -46z m238 32 c0 -5 -5 -3 -10 5 -5 8 -10 20 -10 25 0 6
5 3 10 -5 5 -8 10 -19 10 -25z"/>
<path d="M2275 3258 c4 -13 9 -46 12 -75 5 -48 4 -52 -18 -56 -24 -4 -24 -4
-1 -6 35 -2 30 -41 -5 -42 -22 -1 -19 -3 12 -9 27 -5 42 -4 47 4 13 19 9 89
-6 118 -8 15 -17 40 -21 57 -4 17 -11 31 -17 31 -6 0 -7 -9 -3 -22z"/>
<path d="M2005 3080 c-24 -6 -18 -8 30 -9 33 -1 71 -4 85 -7 18 -4 21 -3 10 4
-22 14 -91 20 -125 12z"/>
<path d="M1767 3053 c-3 -4 11 -8 31 -8 21 0 48 -4 61 -9 18 -6 22 -5 19 5 -5
15 -103 26 -111 12z"/>
<path d="M2298 3043 c7 -3 16 -2 19 1 4 3 -2 6 -13 5 -11 0 -14 -3 -6 -6z"/>
<path d="M2251 3014 c-12 -15 -21 -34 -20 -43 0 -10 4 -6 10 9 6 13 17 33 26
42 9 10 13 18 10 18 -3 0 -15 -12 -26 -26z"/>
<path d="M1812 3013 c4 -24 48 -31 48 -7 0 10 -3 14 -6 11 -4 -3 -15 -2 -26 4
-17 9 -19 8 -16 -8z"/>
<path d="M1996 3021 c5 -5 33 -11 62 -13 44 -2 50 -1 35 10 -19 14 -112 17
-97 3z"/>
<path d="M2165 2999 c-9 -17 -15 -34 -13 -39 2 -5 11 9 20 30 20 47 15 53 -7
9z"/>
<path d="M1723 2950 c0 -41 2 -58 4 -37 2 20 2 54 0 75 -2 20 -4 3 -4 -38z"/>
<path d="M2012 2983 c4 -22 49 -25 56 -4 3 10 0 12 -11 8 -9 -3 -19 -2 -22 3
-10 17 -27 11 -23 -7z"/>
<path d="M2223 2915 c0 -22 2 -30 4 -17 2 12 2 30 0 40 -3 9 -5 -1 -4 -23z"/>
<path d="M2142 2910 c0 -19 2 -27 5 -17 2 9 2 25 0 35 -3 9 -5 1 -5 -18z"/>
<path d="M1680 2882 c0 -6 15 -25 33 -43 22 -23 26 -30 12 -24 -58 24 -110 28
-165 12 -30 -9 -64 -23 -75 -32 -12 -9 -1 -7 30 7 162 69 294 -18 389 -258 45
-112 76 -164 100 -164 5 0 20 10 32 21 l23 21 -4 -58 c-3 -44 -2 -51 4 -29 12
41 12 139 1 200 -27 146 -28 141 26 192 51 47 47 48 -21 2 -87 -58 -168 -75
-214 -43 -34 24 -111 133 -111 158 0 15 -3 17 -9 8 -6 -11 -13 -7 -30 14 -11
14 -21 22 -21 16z m351 -210 c-6 -12 -5 -38 4 -77 27 -123 27 -150 0 -179 -13
-14 -28 -26 -33 -26 -19 0 -42 39 -80 138 l-40 102 35 0 c37 0 82 19 102 44
18 21 24 20 12 -2z"/>
<path d="M1996 2600 c-22 -56 -19 -65 5 -11 11 24 18 46 15 48 -2 2 -11 -14
-20 -37z"/>
<path d="M2151 2854 c0 -11 3 -14 6 -6 3 7 2 16 -1 19 -3 4 -6 -2 -5 -13z"/>
<path d="M2230 2867 c0 -16 21 -47 33 -47 8 0 9 3 1 8 -6 4 -16 16 -22 27 -6
11 -12 16 -12 12z"/>
<path d="M1882 2811 c4 -13 18 -16 19 -4 0 4 -5 9 -11 12 -7 2 -11 -2 -8 -8z"/>
<path d="M2162 2605 c-1 -22 -4 -58 -7 -80 l-5 -40 11 40 c5 22 8 58 6 80 l-4
40 -1 -40z"/>
<path d="M2920 2570 c-6 -11 -9 -24 -7 -28 2 -4 -5 -16 -16 -26 -20 -19 -20
-19 -13 7 9 36 -12 39 -51 8 -18 -14 -46 -37 -63 -50 -17 -13 -29 -25 -27 -28
3 -2 42 -6 87 -8 100 -5 142 -13 137 -28 -2 -7 -19 -15 -38 -18 -22 -4 -26 -7
-11 -8 33 -2 27 -19 -10 -30 -18 -5 -27 -10 -19 -10 24 -2 -18 -39 -86 -77
l-62 -35 -27 -82 c-23 -70 -35 -89 -81 -132 l-53 -51 25 -14 c19 -10 24 -19
19 -34 -8 -25 -1 -20 16 13 6 13 8 21 2 18 -5 -4 -18 0 -28 9 -18 14 -17 14
11 12 27 -2 43 10 130 102 55 58 128 140 163 183 59 73 65 77 78 60 14 -17 14
-17 7 1 -6 18 -2 19 105 12 74 -4 113 -3 117 4 4 6 16 8 28 4 21 -6 21 -5 4 8
-10 8 -17 18 -16 23 1 6 -1 18 -6 28 -10 24 -2 30 53 38 l47 6 -62 2 c-48 1
-63 4 -63 16 0 8 11 17 25 20 14 3 36 7 50 10 14 3 23 10 19 16 -3 6 -19 7
-34 4 -38 -8 -47 10 -15 31 23 15 25 18 10 27 -26 14 -115 20 -115 8 0 -8 -21
-10 -62 -7 -35 2 -52 1 -38 -2 17 -3 2 -9 -50 -18 -41 -7 -76 -11 -79 -9 -9 9
22 34 47 38 25 4 24 4 -5 6 -23 1 -35 -5 -43 -19z m-52 -82 c-3 -8 -25 -14
-52 -15 -31 -2 -45 1 -40 8 3 6 17 9 30 6 13 -2 24 0 24 4 0 5 9 9 21 9 12 0
19 -5 17 -12z"/>
<path d="M1470 2550 c-108 -22 -75 -25 45 -4 85 15 202 15 250 0 11 -3 7 0
-10 8 -41 20 -177 18 -285 -4z"/>
<path d="M1518 2500 c-20 -11 -40 -24 -43 -30 -4 -6 12 -1 34 11 59 31 109 34
154 11 44 -23 50 -14 8 11 -38 22 -107 21 -153 -3z"/>
<path d="M1840 2509 c0 -4 18 -44 40 -90 39 -83 54 -102 25 -32 -8 20 -14 37
-12 39 2 2 31 -35 65 -83 34 -48 62 -83 62 -79 0 14 -132 197 -138 191 -3 -3
-14 9 -24 27 -9 18 -17 30 -18 27z"/>
<path d="M2646 2473 c-23 -4 -26 -7 -15 -14 11 -8 9 -14 -15 -35 -27 -24 -29
-24 -49 -7 -11 10 -17 13 -14 6 4 -6 2 -15 -4 -19 -34 -21 -129 -273 -116
-306 3 -7 6 0 6 15 1 33 17 28 23 -8 6 -26 -14 -51 -32 -40 -6 4 -10 -5 -10
-22 1 -23 2 -25 10 -11 6 9 32 33 59 52 56 42 70 71 106 219 21 87 30 106 62
139 20 21 33 37 28 37 -6 -1 -23 -4 -39 -6z"/>
<path d="M1693 2439 c28 -37 97 -187 97 -209 0 -10 -3 -10 -15 0 -12 10 -16 9
-20 -2 -9 -23 11 -65 63 -129 26 -33 66 -83 89 -112 22 -29 40 -53 38 -55 -1
-2 -29 9 -60 23 -58 25 -161 55 -186 54 -8 0 23 -11 69 -25 46 -13 96 -31 111
-39 15 -7 58 -21 95 -29 37 -9 81 -23 97 -32 17 -9 28 -11 24 -5 -10 17 -56
38 -98 46 -29 6 -44 17 -66 49 -16 22 -38 50 -50 60 -12 11 -35 65 -57 135
-40 129 -100 256 -135 286 -20 17 -19 15 4 -16z m96 -238 c18 -18 23 -31 38
-86 7 -26 -52 53 -61 83 -9 27 -2 28 23 3z"/>
<path d="M2798 2393 c12 -2 32 -2 45 0 12 2 2 4 -23 4 -25 0 -35 -2 -22 -4z"/>
<path d="M3273 2383 c9 -2 23 -2 30 0 6 3 -1 5 -18 5 -16 0 -22 -2 -12 -5z"/>
<path d="M1379 2309 c-17 -90 -17 -180 1 -234 13 -40 115 -156 155 -177 11 -6
-14 25 -55 68 -51 54 -79 92 -88 120 -15 51 -16 156 -1 224 6 27 9 55 7 62 -2
6 -11 -22 -19 -63z"/>
<path d="M2680 2370 c-9 -6 -10 -10 -3 -10 6 0 15 5 18 10 8 12 4 12 -15 0z"/>
<path d="M2838 2343 c6 -2 18 -2 25 0 6 3 1 5 -13 5 -14 0 -19 -2 -12 -5z"/>
<path d="M2798 2333 c7 -3 16 -2 19 1 4 3 -2 6 -13 5 -11 0 -14 -3 -6 -6z"/>
<path d="M2265 2238 c-4 -18 -23 -62 -42 -98 -19 -36 -32 -57 -29 -47 11 34
28 148 24 152 -3 3 -10 -25 -17 -63 -7 -37 -25 -110 -41 -162 -15 -52 -31
-108 -34 -125 -7 -32 -53 -67 -92 -69 -30 -2 -85 -42 -115 -85 -26 -37 -44
-86 -28 -75 5 3 9 11 9 18 0 32 105 136 137 136 10 0 5 -12 -16 -35 -46 -52
-38 -51 17 3 28 28 92 71 157 106 61 33 129 72 153 88 37 25 42 27 43 11 1
-10 7 24 15 76 7 52 11 97 9 100 -3 2 -5 -4 -6 -15 0 -10 -6 -1 -14 21 -7 22
-13 32 -14 23 -1 -9 4 -29 10 -45 6 -16 8 -50 4 -80 -6 -45 -10 -54 -45 -77
l-39 -26 3 133 c4 128 4 129 -4 32 -4 -55 -8 -116 -9 -136 -1 -34 -5 -39 -56
-65 -44 -23 -58 -27 -72 -18 -28 18 -19 56 41 178 49 100 76 176 63 176 -3 0
-9 -15 -12 -32z"/>
<path d="M1628 2013 c12 -2 30 -2 40 0 9 3 -1 5 -23 4 -22 0 -30 -2 -17 -4z"/>
<path d="M2413 1950 c0 -25 2 -35 4 -22 2 12 2 32 0 45 -2 12 -4 2 -4 -23z"/>
<path d="M2504 1912 c-33 -31 -51 -49 -39 -39 12 9 23 16 26 14 2 -2 21 16 43
40 21 24 37 43 35 43 -2 0 -31 -26 -65 -58z"/>
<path d="M2383 1895 c0 -38 2 -53 4 -32 2 20 2 52 0 70 -2 17 -4 1 -4 -38z"/>
<path d="M2870 1911 c-22 -45 -170 -212 -198 -223 -14 -6 -13 -7 4 -5 40 4
240 245 220 264 -3 3 -14 -14 -26 -36z"/>
<path d="M2404 1770 c0 -74 1 -93 3 -48 l4 77 32 -6 c30 -5 44 -12 102 -49 14
-9 25 -14 25 -11 0 3 -22 19 -49 37 -48 30 -49 32 -39 61 6 17 8 32 5 35 -3 3
-8 -9 -12 -26 -8 -36 -28 -48 -50 -30 -12 10 -13 16 -3 28 9 11 9 14 1 9 -7
-5 -13 2 -16 20 -2 16 -4 -28 -3 -97z"/>
<path d="M1612 1818 c30 -35 69 -82 86 -105 24 -31 46 -46 85 -59 28 -9 71
-30 94 -45 23 -16 51 -29 62 -29 11 0 25 -8 30 -19 6 -10 18 -22 28 -25 12 -5
8 3 -11 23 -26 27 -28 35 -23 73 3 24 9 53 12 63 3 11 -1 7 -9 -10 -8 -16 -15
-45 -16 -62 0 -40 -10 -41 -63 -4 -23 15 -65 36 -93 45 -51 16 -91 56 -197
192 -10 13 -23 24 -29 24 -5 0 15 -28 44 -62z"/>
<path d="M2370 1803 c-1 -11 -177 -192 -230 -237 -25 -21 -34 -32 -20 -25 14
6 75 63 137 127 l112 114 4 -128 3 -129 2 143 c1 78 0 142 -3 142 -3 0 -5 -3
-5 -7z"/>
<path d="M2580 1725 c0 -7 61 -37 66 -33 2 3 -12 12 -31 21 -19 9 -35 15 -35
12z"/>
<path d="M2393 1575 c0 -27 2 -38 4 -22 2 15 2 37 0 50 -2 12 -4 0 -4 -28z"/>
</g>
</svg>
